<svg xmlns="http://www.w3.org/2000/svg" width="340" height="200" viewBox="0 0 340 200"><style>* {
          font-family: 'Segoe UI', Ubuntu, "Helvetica Neue", Sans-Serif
        }</style><rect x="1" y="1" rx="5" ry="5" height="99%" width="99.41176470588235%" stroke="#000000" stroke-width="1" fill="#262626" stroke-opacity="0"></rect><text x="30" y="40" style="font-size: 22px; fill: #ffffff;">Top Languages by Commit</text><g transform="translate(0,40)"><g transform="translate(40,0)"><rect y="18" width="14" height="14" fill="#00ADD8" stroke="#262626" style="stroke-width: 1px;"></rect><rect y="43.2" width="14" height="14" fill="#4F5D95" stroke="#262626" style="stroke-width: 1px;"></rect><rect y="68.4" width="14" height="14" fill="#701516" stroke="#262626" style="stroke-width: 1px;"></rect><rect y="93.60000000000002" width="14" height="14" fill="#384d54" stroke="#262626" style="stroke-width: 1px;"></rect><rect y="118.80000000000001" width="14" height="14" fill="#f1e05a" stroke="#262626" style="stroke-width: 1px;"></rect><text x="16.8" y="30" style="fill: #bcbcbc; font-size: 14px;">Go</text><text x="16.8" y="55.2" style="fill: #bcbcbc; font-size: 14px;">PHP</text><text x="16.8" y="80.4" style="fill: #bcbcbc; font-size: 14px;">Ruby</text><text x="16.8" y="105.60000000000002" style="fill: #bcbcbc; font-size: 14px;">Dockerfile</text><text x="16.8" y="130.8" style="fill: #bcbcbc; font-size: 14px;">JavaScript</text></g><g transform="translate( 230, 80 )"><g class="arc"><path d="M3.67394039744206e-15,-60A60,60,0,1,1,-58.04455749075131,-15.19306900210968L-33.859325202938265,-8.86262358456398A35,35,0,1,0,2.1431318985078682e-15,-35Z" style="fill: #00ADD8; stroke-width: 2px;" stroke="#262626"></path></g><g class="arc"><path d="M-58.04455749075131,-15.19306900210968A60,60,0,0,1,-39.01732846649621,-45.5812250749971L-22.76010827212279,-26.589047960414977A35,35,0,0,0,-33.859325202938265,-8.86262358456398Z" style="fill: #4F5D95; stroke-width: 2px;" stroke="#262626"></path></g><g class="arc"><path d="M-39.01732846649621,-45.5812250749971A60,60,0,0,1,-21.50797811979849,-56.01255999504281L-12.546320569882454,-32.67399333044163A35,35,0,0,0,-22.76010827212279,-26.589047960414977Z" style="fill: #701516; stroke-width: 2px;" stroke="#262626"></path></g><g class="arc"><path d="M-21.50797811979849,-56.01255999504281A60,60,0,0,1,-6.057927553659581,-59.69339589732362L-3.533791072968089,-34.82114760677211A35,35,0,0,0,-12.546320569882454,-32.67399333044163Z" style="fill: #384d54; stroke-width: 2px;" stroke="#262626"></path></g><g class="arc"><path d="M-6.057927553659581,-59.69339589732362A60,60,0,0,1,-1.1021821192326178e-14,-60L-6.429395695523604e-15,-35A35,35,0,0,0,-3.533791072968089,-34.82114760677211Z" style="fill: #f1e05a; stroke-width: 2px;" stroke="#262626"></path></g></g></g></svg>