<svg xmlns="http://www.w3.org/2000/svg" width="340" height="200" viewBox="0 0 340 200"><style>* {
          font-family: 'Segoe UI', Ubuntu, "Helvetica Neue", Sans-Serif
        }</style><rect x="1" y="1" rx="5" ry="5" height="99%" width="99.41176470588235%" stroke="#eceff4" stroke-width="1" fill="#2e3440" stroke-opacity="1"></rect><text x="30" y="40" style="font-size: 22px; fill: #eceff4;">Top Languages by Commit</text><g transform="translate(0,40)"><g transform="translate(40,0)"><rect y="18" width="14" height="14" fill="#00ADD8" stroke="#2e3440" style="stroke-width: 1px;"></rect><rect y="43.2" width="14" height="14" fill="#4F5D95" stroke="#2e3440" style="stroke-width: 1px;"></rect><rect y="68.4" width="14" height="14" fill="#701516" stroke="#2e3440" style="stroke-width: 1px;"></rect><rect y="93.60000000000002" width="14" height="14" fill="#89e051" stroke="#2e3440" style="stroke-width: 1px;"></rect><rect y="118.80000000000001" width="14" height="14" fill="#555555" stroke="#2e3440" style="stroke-width: 1px;"></rect><text x="16.8" y="30" style="fill: #e5e9f0; font-size: 14px;">Go</text><text x="16.8" y="55.2" style="fill: #e5e9f0; font-size: 14px;">PHP</text><text x="16.8" y="80.4" style="fill: #e5e9f0; font-size: 14px;">Ruby</text><text x="16.8" y="105.60000000000002" style="fill: #e5e9f0; font-size: 14px;">Shell</text><text x="16.8" y="130.8" style="fill: #e5e9f0; font-size: 14px;">C</text></g><g transform="translate( 230, 80 )"><g class="arc"><path d="M3.67394039744206e-15,-60A60,60,0,1,1,-58.297903974880434,-14.189939821423486L-34.00711065201359,-8.277464895830368A35,35,0,1,0,2.1431318985078682e-15,-35Z" style="fill: #00ADD8; stroke-width: 2px;" stroke="#2e3440"></path></g><g class="arc"><path d="M-58.297903974880434,-14.189939821423486A60,60,0,0,1,-41.0728263557213,-43.73811764528471L-23.95914870750409,-25.513901959749415A35,35,0,0,0,-34.00711065201359,-8.277464895830368Z" style="fill: #4F5D95; stroke-width: 2px;" stroke="#2e3440"></path></g><g class="arc"><path d="M-41.0728263557213,-43.73811764528471A60,60,0,0,1,-22.786745731308013,-55.5046324100675L-13.292268343263007,-32.377702239206045A35,35,0,0,0,-23.95914870750409,-25.513901959749415Z" style="fill: #701516; stroke-width: 2px;" stroke="#2e3440"></path></g><g class="arc"><path d="M-22.786745731308013,-55.5046324100675A60,60,0,0,1,-6.021702891072849,-59.69706101887802L-3.512660019792495,-34.823285594345506A35,35,0,0,0,-13.292268343263007,-32.377702239206045Z" style="fill: #89e051; stroke-width: 2px;" stroke="#2e3440"></path></g><g class="arc"><path d="M-6.021702891072849,-59.69706101887802A60,60,0,0,1,4.226888398968133e-14,-60L2.4656848993980778e-14,-35A35,35,0,0,0,-3.512660019792495,-34.823285594345506Z" style="fill: #555555; stroke-width: 2px;" stroke="#2e3440"></path></g></g></g></svg>