<svg xmlns="http://www.w3.org/2000/svg" width="340" height="200" viewBox="0 0 340 200"><style>* {
          font-family: 'Segoe UI', Ubuntu, "Helvetica Neue", Sans-Serif
        }</style><rect x="1" y="1" rx="5" ry="5" height="99%" width="99.41176470588235%" stroke="#000000" stroke-width="1" fill="#011627" stroke-opacity="0"></rect><text x="30" y="40" style="font-size: 22px; fill: #c792ea;">Top Languages by Commit</text><g transform="translate(0,40)"><g transform="translate(40,0)"><rect y="18" width="14" height="14" fill="#00ADD8" stroke="#011627" style="stroke-width: 1px;"></rect><rect y="43.2" width="14" height="14" fill="#4F5D95" stroke="#011627" style="stroke-width: 1px;"></rect><rect y="68.4" width="14" height="14" fill="#701516" stroke="#011627" style="stroke-width: 1px;"></rect><rect y="93.60000000000002" width="14" height="14" fill="#89e051" stroke="#011627" style="stroke-width: 1px;"></rect><rect y="118.80000000000001" width="14" height="14" fill="#555555" stroke="#011627" style="stroke-width: 1px;"></rect><text x="16.8" y="30" style="fill: #7fdbca; font-size: 14px;">Go</text><text x="16.8" y="55.2" style="fill: #7fdbca; font-size: 14px;">PHP</text><text x="16.8" y="80.4" style="fill: #7fdbca; font-size: 14px;">Ruby</text><text x="16.8" y="105.60000000000002" style="fill: #7fdbca; font-size: 14px;">Shell</text><text x="16.8" y="130.8" style="fill: #7fdbca; font-size: 14px;">C</text></g><g transform="translate( 230, 80 )"><g class="arc"><path d="M3.67394039744206e-15,-60A60,60,0,1,1,-59.14550887461137,-10.090033694852943L-34.5015468435233,-5.885852988664217A35,35,0,1,0,2.1431318985078682e-15,-35Z" style="fill: #00ADD8; stroke-width: 2px;" stroke="#011627"></path></g><g class="arc"><path d="M-59.14550887461137,-10.090033694852943A60,60,0,0,1,-45.12070263198314,-39.54898474039693L-26.32040986865683,-23.07024109856488A35,35,0,0,0,-34.5015468435233,-5.885852988664217Z" style="fill: #4F5D95; stroke-width: 2px;" stroke="#011627"></path></g><g class="arc"><path d="M-45.12070263198314,-39.54898474039693A60,60,0,0,1,-29.45640606689768,-52.271599761457786L-17.18290353902365,-30.49176652751704A35,35,0,0,0,-26.32040986865683,-23.07024109856488Z" style="fill: #701516; stroke-width: 2px;" stroke="#011627"></path></g><g class="arc"><path d="M-29.45640606689768,-52.271599761457786A60,60,0,0,1,-13.40354710397077,-58.48371504129707L-7.818735810649616,-34.11550044075662A35,35,0,0,0,-17.18290353902365,-30.49176652751704Z" style="fill: #89e051; stroke-width: 2px;" stroke="#011627"></path></g><g class="arc"><path d="M-13.40354710397077,-58.48371504129707A60,60,0,0,1,-1.1021821192326178e-14,-60L-6.429395695523604e-15,-35A35,35,0,0,0,-7.818735810649616,-34.11550044075662Z" style="fill: #555555; stroke-width: 2px;" stroke="#011627"></path></g></g></g></svg>